# xmcd
#
# Track frame offsets:
#	150
#	15885
#	30515
#	48110
#	65825
#	80387
#	94955
#	107930
#	123092
#	134230
#	146612
#	160102
#	172530
#	185940
#	198355
#	210357
#
# Disc length: 3006 seconds
#
# Revision: 1
# Processed by: cddbd v1.5.2PL0 Copyright (c) Steve Scherf et al.
# Submitted via: audiograbber 1.83.01
#
DISCID=d50bbc10
DTITLE=Various Artist - 추억 속의 가요 모음집 Vol.3
DYEAR=1900
DGENRE=Trot
TTITLE0=나훈아 - 잡초
TTITLE1=남진 - 빈잔
TTITLE2=패티 김 - 이별
TTITLE3=문주란 - 백치 아다다
TTITLE4=이미자 - 흑산도 아가씨
TTITLE5=김지애 - 몰래한 사랑
TTITLE6=조미미 - 서귀포를 아시나요
TTITLE7=나훈아 - 머나먼 고향
TTITLE8=남진 - 님과 함께
TTITLE9=패티 김 - 사랑이란 두 글자
TTITLE10=이미자 - 섬마을 선생님
TTITLE11=문주란 - 보슬비 오는 거리
TTITLE12=나훈아 - 녹슬은 기찻길
TTITLE13=하춘화 - 쌓인 정
TTITLE14=남진 - 젊은 초원
TTITLE15=패티 김 - 하와이 연정
EXTD=
EXTT0=
EXTT1=
EXTT2=
EXTT3=
EXTT4=
EXTT5=
EXTT6=
EXTT7=
EXTT8=
EXTT9=
EXTT10=
EXTT11=
EXTT12=
EXTT13=
EXTT14=
EXTT15=
PLAYORDER=
